<?xml version="1.0" encoding="UTF-8"?>
<!DOCTYPE svg PUBLIC "-//W3C//DTD SVG 1.1//EN" "http://www.w3.org/Graphics/SVG/1.1/DTD/svg11.dtd">
<!-- Creator: CorelDRAW X8 -->
<svg xmlns="http://www.w3.org/2000/svg" xml:space="preserve" width="250mm" height="250mm" version="1.1" style="shape-rendering:geometricPrecision; text-rendering:geometricPrecision; image-rendering:optimizeQuality; fill-rule:evenodd; clip-rule:evenodd"
viewBox="0 0 25000 25000"
 xmlns:xlink="http://www.w3.org/1999/xlink">
 <defs>
  <style type="text/css">
   <![CDATA[
    .str0 {stroke:#003399;stroke-width:20}
    .fil0 {fill:#14367A}
   ]]>
  </style>
 </defs>
 <g id="Layer_x0020_1">
  <metadata id="CorelCorpID_0Corel-Layer"/>
  <path class="fil0 str0" d="M4929 1728l15317 0c2069,0 3761,1692 3761,3761l0 14086c0,2068 -1692,3761 -3761,3761l-15317 0c-2068,0 -3761,-1693 -3761,-3761l0 -14086c0,-2069 1693,-3761 3761,-3761zm1513 9231l0 -3014 6726 6630 -4009 4038c-456,459 -453,1200 5,1656 459,455 1200,453 1656,-6l4015 -4044 4042 3984c461,454 1202,449 1656,-11 454,-461 448,-1202 -12,-1656l-4036 -3978 3976 -4005c456,-459 453,-1200 -5,-1655 -459,-456 -1200,-453 -1656,5l-2854 2874 0 -5460 3411 0c647,0 1171,-524 1171,-1170 0,-647 -524,-1171 -1171,-1171l-8821 0c-646,0 -1170,524 -1170,1171 0,646 524,1170 1170,1170l3069 0 0 5402 -7512 -7406c-206,-204 -479,-322 -769,-336 -510,-23 -973,286 -1150,761 -49,128 -74,271 -74,409l0 5812c0,647 524,1171 1171,1171 647,0 1171,-524 1171,-1171z"/>
 </g>
</svg>
